<svg xmlns="http://www.w3.org/2000/svg" xmlns:xlink="http://www.w3.org/1999/xlink" version="1.1" x="0px" y="0px" viewBox="0 0 48 60" enable-background="new 0 0 48 48" xml:space="preserve"><path d="M37.492,8.252c0.328-0.442,0.232-1.069-0.211-1.397c-9.443-6.978-22.807-4.972-29.785,4.475  c-6.977,9.444-4.97,22.806,4.475,29.783c3.784,2.796,8.219,4.194,12.653,4.193c4.436,0,8.871-1.398,12.654-4.193  c0.445-0.327,0.539-0.955,0.211-1.397c-0.328-0.444-0.953-0.539-1.396-0.211c-6.861,5.067-16.078,5.065-22.934,0  C4.603,33.181,2.785,21.075,9.106,12.518C15.43,3.957,27.537,2.143,36.094,8.463C36.537,8.792,37.162,8.697,37.492,8.252z"/><path d="M42.162,17.637h-5.4c-1.379,0-2.5,1.12-2.5,2.5v2.847H14.491c-0.553,0-1,0.447-1,1c0,0.554,0.447,1,1,1h1.391v2.281  c0,0.553,0.447,1,1,1c0.553,0,1-0.447,1-1v-2.281h2.467v0.646c0,0.554,0.447,1,1,1s1-0.446,1-1v-0.646h11.915v2.847  c0,1.379,1.121,2.5,2.5,2.5h5.398c1.379,0,2.5-1.121,2.5-2.5v-7.692C44.662,18.757,43.541,17.637,42.162,17.637z"/><text x="0" y="63" fill="#000000" font-size="5px" font-weight="bold" font-family="'Helvetica Neue', Helvetica, Arial-Unicode, Arial, Sans-serif">Created by Kieu Thi Kim Cuong</text><text x="0" y="68" fill="#000000" font-size="5px" font-weight="bold" font-family="'Helvetica Neue', Helvetica, Arial-Unicode, Arial, Sans-serif">from the Noun Project</text></svg>